<svg xmlns="http://www.w3.org/2000/svg" id="Layer_1" width="120.1" height="130.2"><defs id="defs52"><linearGradient id="XMLID_3_-1" x1="48.360699" x2="119.9179" y1="6.9082999" y2="69.554604" gradientUnits="userSpaceOnUse"><stop id="stop8-9" offset="0" stop-color="#ef5a6b"/><stop id="stop10-2" offset=".57" stop-color="#f26f4e"/><stop id="stop12-6" offset="1" stop-color="#f37b3d"/></linearGradient><clipPath id="clipPath866"><path id="rect868" fill="#2c2f34" d="M-26.870058 7.3401937h63.462833v62.402172h-63.462833z"/></clipPath></defs><g id="g47"><linearGradient id="XMLID_2_" x1="31.8412" x2="110.2402" y1="120.5578" y2="73.24" gradientUnits="userSpaceOnUse"><stop id="stop2" offset="0" stop-color="#fcee39"/><stop id="stop4" offset="1" stop-color="#f37b3d"/></linearGradient><path id="XMLID_3041_" fill="url(#XMLID_2_)" d="M118.6 71.8c.9-.8 1.4-1.9 1.5-3.2.1-2.6-1.8-4.7-4.4-4.9-1.2-.1-2.4.4-3.3 1.1l-83.8 45.9c-1.9.8-3.6 2.2-4.7 4.1-2.9 4.8-1.3 11 3.6 13.9 3.4 2 7.5 1.8 10.7-.2.2-.2.5-.3.7-.5l78-54.8c.4-.3 1.5-1.1 1.7-1.4z"/><linearGradient id="XMLID_3_" x1="48.3607" x2="119.9179" y1="6.9083" y2="69.5546" gradientUnits="userSpaceOnUse"><stop id="stop8" offset="0" stop-color="#ef5a6b"/><stop id="stop10" offset=".57" stop-color="#f26f4e"/><stop id="stop12" offset="1" stop-color="#f37b3d"/></linearGradient><linearGradient id="XMLID_4_" x1="52.9467" x2="10.5379" y1="63.6407" y2="37.1562" gradientUnits="userSpaceOnUse"><stop id="stop16" offset="0" stop-color="#7c59a4"/><stop id="stop18" offset=".3852" stop-color="#af4c92"/><stop id="stop20" offset=".7654" stop-color="#dc4183"/><stop id="stop22" offset=".957" stop-color="#ed3d7d"/></linearGradient><path id="XMLID_3042_" fill="url(#XMLID_4_)" d="M57.1 59.5c-.1 0-39.4-31-40.2-31.5l-1.8-.9c-5.8-2.2-12.2.8-14.4 6.6-1.9 5.1.2 10.7 4.6 13.4.7.4 1.3.7 2 .9.4.2 45.4 18.8 45.4 18.8 1.8.8 3.9.3 5.1-1.2 1.5-1.9 1.2-4.6-.7-6.1z" clip-path="url(#clipPath866)"/><path id="XMLID_3049_" fill="url(#XMLID_3_)" d="M118.8 65.1L55 2.5C53.6 1 51.6 0 49.3 0c-4.3 0-7.7 3.5-7.7 7.7 0 2.1.8 3.9 2.1 5.3.4.4.8.7 1.2 1l67.4 57.7c.8.7 1.8 1.2 3 1.3 2.6.1 4.7-1.8 4.9-4.4 0-1.3-.5-2.6-1.4-3.5z"/><linearGradient id="XMLID_5_" x1="52.1736" x2="10.7706" y1="3.7019" y2="37.8971" gradientUnits="userSpaceOnUse"><stop id="stop26" offset="0" stop-color="#ef5a6b"/><stop id="stop28" offset=".364" stop-color="#ee4e72"/><stop id="stop30" offset="1" stop-color="#ed3d7d"/></linearGradient><path id="XMLID_3057_" fill="url(#XMLID_5_)" d="M49.3 0c-1.7 0-3.3.6-4.6 1.5L4.9 28.3c-.1.1-.2.1-.2.2h-.1c-1.7 1.2-3.1 3-3.9 5.1-2.2 5.8.8 12.3 6.6 14.4 3.6 1.4 7.5.7 10.4-1.4.7-.5 1.3-1 1.8-1.6l34.6-31.2c1.8-1.4 3-3.6 3-6.1 0-4.2-3.5-7.7-7.8-7.7z"/><g id="g5003" transform="translate(14.298379 30.682741) scale(.33793)"><path id="path4997" fill="#7289da" stroke-width="1.00811589" d="M115.14572 89.641867c-5.74625 0-10.28278 5.04058-10.28278 11.190083 0 6.14951 4.63734 11.19008 10.28278 11.19008 5.74625 0 10.28278-5.04057 10.28278-11.19008.10079-6.149503-4.53653-11.190083-10.28278-11.190083z" class="st0"/><path id="path4999" fill="#7289da" stroke-width="1.00811589" d="M151.94195 89.641867c-5.74626 0-10.28278 5.04058-10.28278 11.190083 0 6.14951 4.63732 11.19008 10.28278 11.19008 5.74627 0 10.28277-5.04057 10.28277-11.19008 0-6.149503-4.5365-11.190083-10.28277-11.190083z" class="st0"/><path id="path5001" fill="#7289da" stroke-width="1.00811589" d="M200.93638 5.0609418H65.848855c-11.39171 0-20.666377 9.2746662-20.666377 20.7671882v136.29728c0 11.49252 9.274667 20.76718 20.666377 20.76718H180.1692l-5.34301-18.65014 12.90388 11.99658 12.19821 11.29089 21.67449 19.15422V25.82813c0-11.492522-9.27467-20.7671882-20.66639-20.7671882zM162.02311 136.72088s-3.62921-4.33489-6.65356-8.16574c13.20631-3.73002 18.24689-11.99656 18.24689-11.99656-4.13327 2.72191-8.06492 4.63732-11.59333 5.94788-5.04058 2.11704-9.87954 3.52839-14.61767 4.33489-9.67794 1.81461-18.54935 1.31056-26.11021-.10079-5.74626-1.10895-10.68603-2.72192-14.81929-4.33491-2.31868-.9073-4.83897-2.01622-7.359257-3.42759-.30245-.20162-.60487-.30244-.90731-.50406-.20162-.10091-.30243-.20163-.40324-.30245-1.81462-1.00811-2.82272-1.71378-2.82272-1.71378s4.83895 8.06492 17.642017 11.89577c-3.02436 3.83083-6.75438 8.36735-6.75438 8.36735-22.279356-.70568-30.747528-15.32336-30.747528-15.32336 0-32.461332 14.516871-58.773158 14.516871-58.773158C104.15726 51.73672 117.96844 52.039154 117.96844 52.039154l1.00811 1.20974c-18.14607 5.242203-26.513437 13.206318-26.513437 13.206318s2.21786-1.209738 5.94788-2.923535c10.786837-4.738147 19.355827-6.048695 22.884237-6.351131.60486-.100816 1.10893-.201623 1.7138-.201623 6.14951-.806493 13.10551-1.008117 20.36393-.201624 9.57711 1.108929 19.85989 3.931652 30.34429 9.677913 0 0-7.96411-7.560868-25.10208-12.803072l1.41136-1.612986s13.81119-.302434 28.32807 10.585218c0 0 14.51686 26.311826 14.51686 58.773158 0 0-8.56899 14.61768-30.84835 15.32336z" class="st0"/></g><path id="XMLID_3049_-2" fill="url(#XMLID_3_-1)" d="M118.8 65.1L63.831331 11.175078c5.020729 5.656214-7.784592 1.183788-13.820486 7.189196L112.3 71.7c.8.7 1.8 1.2 3 1.3 2.6.1 4.7-1.8 4.9-4.4 0-1.3-.5-2.6-1.4-3.5z"/></g></svg>