<svg version="1.1" xmlns="http://www.w3.org/2000/svg" xmlns:xlink="http://www.w3.org/1999/xlink" preserveAspectRatio="xMidYMid meet" viewBox="0 0 1024 1024" width="1024" height="1024"><defs><path d="M984.41 539.93C985.2 519.46 970.24 502.93 949.78 501.36C940.34 500.57 930.89 504.51 923.81 510.02C857.85 546.14 330.22 835.15 264.27 871.28C249.32 877.58 235.94 888.6 227.28 903.55C204.45 941.33 217.05 990.13 255.61 1012.95C282.37 1028.69 314.64 1027.12 339.82 1011.38C341.4 1009.8 343.76 1009.02 345.33 1007.44C406.72 964.31 897.84 619.26 959.23 576.13C962.37 573.77 971.03 567.47 972.6 565.11C979.69 558.82 983.62 550.16 984.41 539.93Z" id="c2OOrpfR3J"/><linearGradient id="gradientc3ba1Gq22" gradientUnits="userSpaceOnUse" x1="289.78" y1="948.87" x2="906.81" y2="576.45"><stop style="stop-color: #fcee39;stop-opacity: 1" offset="0%"/><stop style="stop-color: #f37b3d;stop-opacity: 1" offset="100%"/></linearGradient><path d="M361.5 367.57C275.03 299.58 175.56 221.37 172.02 219.16C170.6 218.45 159.27 212.78 157.85 212.07C112.2 194.76 61.83 218.37 44.52 264.02C29.57 304.16 46.09 348.24 80.72 369.49C86.23 372.64 90.95 375 96.46 376.57C97.66 377.17 170.03 407.17 313.57 466.56C349.86 403.98 365.84 370.98 361.5 367.57Z" id="ggkGLl7HY"/><linearGradient id="gradientaabImEaC4P" gradientUnits="userSpaceOnUse" x1="330.26" y1="444" x2="96.97" y2="275.12"><stop style="stop-color: #7c59a4;stop-opacity: 1" offset="0%"/><stop style="stop-color: #af4c92;stop-opacity: 1" offset="38.519999999999996%"/><stop style="stop-color: #dc4183;stop-opacity: 1" offset="76.53999999999999%"/><stop style="stop-color: #ed3d7d;stop-opacity: 1" offset="95.7%"/></linearGradient><path d="M472.05 19.68C461.03 7.87 445.29 0 427.19 0C393.34 0 366.58 27.55 366.58 60.6C366.58 77.13 372.88 91.3 383.11 102.32C386.26 105.47 389.41 107.83 392.56 110.19C445.6 155.6 869.97 518.91 923.02 564.33C929.32 569.83 937.19 573.77 946.63 574.56C967.1 575.34 983.62 560.39 985.2 539.93C985.2 529.69 981.26 519.46 974.18 512.38C873.75 413.84 522.26 68.95 472.05 19.68Z" id="a7IYr0vNsL"/><linearGradient id="gradienta3ED8K8f4" gradientUnits="userSpaceOnUse" x1="419.79" y1="54.37" x2="982.98" y2="547.44"><stop style="stop-color: #ef5a6b;stop-opacity: 1" offset="0%"/><stop style="stop-color: #f26f4e;stop-opacity: 1" offset="56.99999999999999%"/><stop style="stop-color: #f37b3d;stop-opacity: 1" offset="100%"/></linearGradient><path d="M390.98 11.81C359.66 32.9 109.06 201.65 77.74 222.74C76.95 223.53 76.17 223.53 76.17 224.31C76.09 224.31 75.46 224.31 75.38 224.31C62 233.76 50.98 247.93 44.68 264.45C27.37 310.1 50.98 361.26 96.63 377.79C124.96 388.81 155.66 383.3 178.48 366.77C183.99 362.84 188.71 358.9 192.65 354.18C219.88 329.62 437.73 133.17 464.96 108.61C479.13 97.6 488.58 80.28 488.58 60.6C488.58 27.55 461.03 0 427.19 0C413.81 0 401.21 4.72 390.98 11.81Z" id="b2tcFB1ZxV"/><linearGradient id="gradientabOBuOQBm" gradientUnits="userSpaceOnUse" x1="449.8" y1="29.14" x2="123.94" y2="298.27"><stop style="stop-color: #ef5a6b;stop-opacity: 1" offset="0%"/><stop style="stop-color: #ee4e72;stop-opacity: 1" offset="36.4%"/><stop style="stop-color: #ed3d7d;stop-opacity: 1" offset="100%"/></linearGradient><path d="M430.61 509.68C430.61 526.03 442.94 539.44 457.96 539.44C473.24 539.44 485.3 526.03 485.3 509.68C485.57 493.32 473.24 479.92 457.96 479.92C442.67 479.92 430.61 493.32 430.61 509.68Z" id="a1Xm74Tqao"/><path d="M528.47 509.68C528.47 526.03 540.81 539.44 555.82 539.44C571.1 539.44 583.17 526.03 583.17 509.68C583.17 493.32 571.1 479.92 555.82 479.92C540.54 479.92 528.47 493.32 528.47 509.68Z" id="f1Ypwp49dh"/><path d="M326.84 254.95C296.55 254.95 271.88 279.62 271.88 310.19C271.88 346.44 271.88 636.45 271.88 672.7C271.88 703.27 296.55 727.94 326.84 727.94C347.11 727.94 448.46 727.94 630.9 727.94L616.68 678.33L651 710.24L683.45 740.27L741.09 791.22C741.09 502.6 741.09 342.26 741.09 310.19C741.09 279.62 716.43 254.95 686.13 254.95C614.27 254.95 362.77 254.95 326.84 254.95ZM564.94 583.41C600.06 573.49 613.47 551.51 613.47 551.51C602.47 558.75 592.02 563.84 582.63 567.33C569.23 572.96 556.36 576.71 543.76 578.86C518.02 583.68 494.42 582.34 474.31 578.59C459.03 575.64 445.89 571.35 434.9 567.06C428.73 564.65 422.03 561.7 415.32 557.94C414.52 557.41 413.72 557.14 412.91 556.6C412.38 556.33 412.11 556.06 411.84 555.8C407.01 553.12 404.33 551.24 404.33 551.24C404.33 551.24 417.2 572.69 451.25 582.88C443.21 593.07 433.29 605.13 433.29 605.13C374.03 603.26 351.51 564.38 351.51 564.38C351.51 478.04 390.12 408.06 390.12 408.06C428.73 379.1 465.46 379.9 465.46 379.9C465.73 380.22 467.88 382.8 468.14 383.12C419.88 397.06 397.63 418.25 397.63 418.25C397.63 418.25 403.53 415.03 413.45 410.47C442.14 397.87 464.93 394.38 474.31 393.58C475.92 393.31 477.26 393.04 478.87 393.04C495.23 390.9 513.73 390.36 533.03 392.5C558.5 395.45 585.85 402.96 613.74 418.25C613.74 418.25 592.55 398.14 546.97 384.19C547.35 383.76 550.35 380.33 550.73 379.9C550.73 379.9 587.46 379.1 626.07 408.06C626.07 408.06 664.68 478.04 664.68 564.38C664.68 564.38 641.89 603.26 582.63 605.13C582.63 605.13 572.98 593.6 564.94 583.41Z" id="c1e0RXBYnR"/><path d="M541.55 87.96C581.07 132.47 480.29 97.27 432.78 144.54C481.8 186.52 874 522.35 923.02 564.33C929.32 569.83 937.19 573.77 946.63 574.56C967.1 575.34 983.62 560.39 985.2 539.93C985.2 529.69 981.26 519.46 974.18 512.38C887.65 427.49 584.82 130.4 541.55 87.96Z" id="g16Ohsjdll"/><linearGradient id="gradientk2V7cBTmx9" gradientUnits="userSpaceOnUse" x1="419.79" y1="54.37" x2="982.98" y2="547.44"><stop style="stop-color: #ef5a6b;stop-opacity: 1" offset="0%"/><stop style="stop-color: #f26f4e;stop-opacity: 1" offset="56.99999999999999%"/><stop style="stop-color: #f37b3d;stop-opacity: 1" offset="100%"/></linearGradient></defs><g><g><g><use xlink:href="#c2OOrpfR3J" opacity="1" fill="url(#gradientc3ba1Gq22)"/><g><use xlink:href="#c2OOrpfR3J" opacity="1" fill-opacity="0" stroke="#000000" stroke-width="1" stroke-opacity="0"/></g></g><g><use xlink:href="#ggkGLl7HY" opacity="1" fill="url(#gradientaabImEaC4P)"/><g><use xlink:href="#ggkGLl7HY" opacity="1" fill-opacity="0" stroke="#000000" stroke-width="1" stroke-opacity="0"/></g></g><g><use xlink:href="#a7IYr0vNsL" opacity="1" fill="url(#gradienta3ED8K8f4)"/><g><use xlink:href="#a7IYr0vNsL" opacity="1" fill-opacity="0" stroke="#000000" stroke-width="1" stroke-opacity="0"/></g></g><g><use xlink:href="#b2tcFB1ZxV" opacity="1" fill="url(#gradientabOBuOQBm)"/><g><use xlink:href="#b2tcFB1ZxV" opacity="1" fill-opacity="0" stroke="#000000" stroke-width="1" stroke-opacity="0"/></g></g><g><use xlink:href="#a1Xm74Tqao" opacity="1" fill="#7289da" fill-opacity="1"/><g><use xlink:href="#a1Xm74Tqao" opacity="1" fill-opacity="0" stroke="#000000" stroke-width="1.01" stroke-opacity="0"/></g></g><g><use xlink:href="#f1Ypwp49dh" opacity="1" fill="#7289da" fill-opacity="1"/><g><use xlink:href="#f1Ypwp49dh" opacity="1" fill-opacity="0" stroke="#000000" stroke-width="1.01" stroke-opacity="0"/></g></g><g><use xlink:href="#c1e0RXBYnR" opacity="1" fill="#7289da" fill-opacity="1"/><g><use xlink:href="#c1e0RXBYnR" opacity="1" fill-opacity="0" stroke="#000000" stroke-width="1.01" stroke-opacity="0"/></g></g><g><use xlink:href="#g16Ohsjdll" opacity="1" fill="url(#gradientk2V7cBTmx9)"/><g><use xlink:href="#g16Ohsjdll" opacity="1" fill-opacity="0" stroke="#000000" stroke-width="1" stroke-opacity="0"/></g></g></g></g></svg>
